<?xml version="1.0" encoding="utf-8"?>
<!-- Generator: Adobe Illustrator 16.0.0, SVG Export Plug-In . SVG Version: 6.00 Build 0)  -->
<!DOCTYPE svg PUBLIC "-//W3C//DTD SVG 1.1//EN" "http://www.w3.org/Graphics/SVG/1.1/DTD/svg11.dtd">
<svg version="1.1" xmlns="http://www.w3.org/2000/svg" xmlns:xlink="http://www.w3.org/1999/xlink" x="0px" y="0px"
	 width="15.166px" height="14.5px" viewBox="0 0 15.166 14.5" enable-background="new 0 0 15.166 14.5" xml:space="preserve">
<g id="refer" display="none">
</g>
<g id="app" display="none">
</g>
<g id="prop2" display="none">
</g>
<g id="Capa_4">
	<g>
		<path fill-rule="evenodd" clip-rule="evenodd" fill="#FFFFFF" d="M0.559,7.491c0-0.303,0-0.604,0-0.906
			c0.022-0.148,0.045-0.294,0.067-0.441c0.523-3.683,3.983-6.291,7.666-5.778c3.367,0.469,5.91,3.442,5.853,6.843
			c-0.051,2.965-2.039,5.577-4.891,6.4c-0.452,0.131-0.922,0.195-1.383,0.288c-0.362,0-0.724,0-1.088,0
			c-0.045-0.016-0.091-0.041-0.139-0.048c-2.896-0.343-5.142-2.297-5.868-5.122C0.672,8.323,0.63,7.902,0.559,7.491z M7.345,13.052
			c3.239-0.002,5.954-2.671,5.96-5.861c0.008-3.351-2.65-6.048-5.958-6.045c-3.213,0.003-5.942,2.676-5.94,5.815
			C1.41,10.366,4.028,13.052,7.345,13.052z"/>
		<path fill-rule="evenodd" clip-rule="evenodd" fill="#FFFFFF" stroke="#FFFFFF" stroke-miterlimit="10" d="M6.505,8.63
			c1.143-1.142,2.261-2.257,3.378-3.372c0.064-0.064,0.124-0.137,0.197-0.187c0.189-0.131,0.381-0.124,0.543,0.044
			c0.155,0.159,0.159,0.341,0.038,0.521c-0.044,0.066-0.105,0.121-0.162,0.178C9.305,7.01,8.11,8.207,6.916,9.402
			C6.595,9.722,6.424,9.724,6.11,9.409C5.477,8.776,4.844,8.144,4.213,7.508C3.964,7.259,3.941,7.049,4.128,6.854
			c0.198-0.204,0.419-0.183,0.679,0.077C5.37,7.49,5.93,8.054,6.505,8.63z"/>
	</g>
</g>
</svg>
