<?xml version="1.0" encoding="utf-8"?>
<!-- Generator: Adobe Illustrator 16.0.0, SVG Export Plug-In . SVG Version: 6.00 Build 0)  -->
<!DOCTYPE svg PUBLIC "-//W3C//DTD SVG 1.1//EN" "http://www.w3.org/Graphics/SVG/1.1/DTD/svg11.dtd">
<svg version="1.1" xmlns="http://www.w3.org/2000/svg" xmlns:xlink="http://www.w3.org/1999/xlink" x="0px" y="0px" width="14px"
	 height="14.5px" viewBox="0 0 14 14.5" enable-background="new 0 0 14 14.5" xml:space="preserve">
<g id="refer" display="none">
</g>
<g id="app" display="none">
</g>
<g id="prop2" display="none">
</g>
<g id="Capa_4">
	<g>
		<g>
			<path fill-rule="evenodd" clip-rule="evenodd" fill="#FF1D25" d="M2.325,1.742c2.708,0,5.416,0,8.126,0
				c0.007,0.002,0.015,0.006,0.021,0.006c0.111,0.009,0.216,0.042,0.315,0.092c0.166,0.084,0.313,0.196,0.453,0.316
				c0.289,0.242,0.555,0.506,0.819,0.772c0.255,0.258,0.506,0.519,0.729,0.805c0.183,0.233,0.294,0.486,0.294,0.794
				c-0.005,2.617-0.004,5.233-0.004,7.852c0,0.093-0.009,0.188-0.026,0.279c-0.13,0.663-0.696,1.13-1.37,1.13
				c-3.084,0.001-6.168,0-9.252,0c-0.15,0-0.296-0.019-0.437-0.068c-0.486-0.172-0.797-0.507-0.924-1.009
				c-0.017-0.069-0.024-0.142-0.038-0.213c0-3.155,0-6.309,0-9.464c0.002-0.01,0.006-0.02,0.008-0.029
				C1.056,2.92,1.062,2.833,1.088,2.751c0.158-0.509,0.497-0.832,1.013-0.97C2.174,1.761,2.249,1.755,2.325,1.742z M7.053,13.324
				c1.383,0,2.768,0,4.151,0c0.027,0,0.055,0.001,0.082-0.004c0.245-0.041,0.403-0.228,0.403-0.477c0-1.163,0-2.326,0-3.489
				c0-0.373,0-0.747,0-1.12c0-0.262-0.204-0.468-0.467-0.469c-0.333-0.001-0.665,0-0.997,0c-2.441,0-4.882,0-7.323,0
				c-0.274,0-0.478,0.198-0.478,0.467c-0.002,1.541-0.001,3.082,0,4.624c0,0.038,0.004,0.077,0.012,0.113
				c0.053,0.215,0.235,0.354,0.462,0.354C4.284,13.324,5.669,13.324,7.053,13.324z M6.822,2.206c-0.989,0-1.979,0-2.969,0
				c-0.021,0-0.042-0.001-0.062,0C3.546,2.218,3.35,2.422,3.35,2.668c0,1.082,0,2.164,0,3.246c0,0.251,0.207,0.459,0.458,0.461
				C3.938,6.376,4.07,6.376,4.202,6.376c1.881-0.001,3.764,0,5.645-0.001c0.214,0,0.41-0.17,0.444-0.381
				c0.005-0.033,0.008-0.066,0.008-0.099c0-1.069,0-2.138,0-3.207c0-0.089-0.015-0.173-0.062-0.248
				c-0.096-0.158-0.236-0.235-0.422-0.235C8.818,2.206,7.819,2.206,6.822,2.206z"/>
			<path fill-rule="evenodd" clip-rule="evenodd" fill="#FF1D25" d="M9.37,2.671c0,1.081,0,2.158,0,3.238c-0.461,0-0.921,0-1.386,0
				c0-1.078,0-2.156,0-3.238C8.445,2.671,8.907,2.671,9.37,2.671z"/>
		</g>
	</g>
</g>
</svg>
