<?xml version="1.0" encoding="utf-8"?>
<!-- Generator: Adobe Illustrator 16.0.0, SVG Export Plug-In . SVG Version: 6.00 Build 0)  -->
<!DOCTYPE svg PUBLIC "-//W3C//DTD SVG 1.1//EN" "http://www.w3.org/Graphics/SVG/1.1/DTD/svg11.dtd">
<svg version="1.1" xmlns="http://www.w3.org/2000/svg" xmlns:xlink="http://www.w3.org/1999/xlink" x="0px" y="0px"
	 width="18.751px" height="14.417px" viewBox="0 0 18.751 14.417" enable-background="new 0 0 18.751 14.417" xml:space="preserve">
<g id="refer" display="none">
</g>
<g id="app" display="none">
</g>
<g id="prop2" display="none">
</g>
<g id="Capa_4">
	<g>
		<g>
			<path fill-rule="evenodd" clip-rule="evenodd" fill="#F52E2E" d="M9.592,13.855c-2.111,0-4.224,0.004-6.334-0.001
				c-1.35-0.003-2.327-0.965-2.333-2.324C0.914,8.598,0.912,5.666,0.924,2.733C0.929,1.413,1.91,0.434,3.223,0.432
				c4.28-0.008,8.562-0.008,12.841-0.001c1.268,0.001,2.272,1.002,2.276,2.26c0.008,2.913,0.008,5.826-0.002,8.738
				c-0.005,1.477-0.951,2.417-2.414,2.42c-2.111,0.006-4.222,0.002-6.332,0.002C9.592,13.853,9.592,13.854,9.592,13.855z
				 M2.371,7.251C2.426,7.275,2.48,7.3,2.534,7.325C3.146,6.799,3.781,6.299,4.361,5.74c0.67-0.645,1.031-0.676,1.668-0.03
				c0.784,0.792,1.568,1.584,2.354,2.375C8.925,8.633,8.981,8.629,9.59,8.161c0.479-0.37,0.984-0.707,1.452-1.088
				c0.405-0.33,0.773-0.29,1.161,0.003c0.385,0.291,0.771,0.577,1.159,0.862c0.721,0.53,1.432,1.072,2.166,1.582
				c0.415,0.289,0.868,0.524,1.364,0.819c0-2.597,0.006-5.097-0.004-7.598C16.885,2.18,16.575,1.896,16,1.875
				c-0.409-0.014-0.821-0.003-1.23-0.003C11.013,1.871,7.258,1.869,3.502,1.869c-0.846,0-1.13,0.278-1.135,1.113
				c-0.003,0.45,0.004,0.9,0.004,1.35C2.372,5.305,2.371,6.278,2.371,7.251z"/>
			<path fill-rule="evenodd" clip-rule="evenodd" fill="#F52E2E" d="M14.713,4.357c0.01,0.616-0.445,1.077-1.053,1.071
				c-0.68-0.007-1.113-0.426-1.113-1.081c-0.005-0.614,0.475-1.094,1.094-1.103C14.274,3.236,14.703,3.682,14.713,4.357z"/>
		</g>
	</g>
</g>
</svg>
